<svg width="512" height="512" viewBox="0 0 512 512" fill="none" xmlns="http://www.w3.org/2000/svg">
<path d="M414.115 64.1582C415.781 64.641 417 66.1778 417 68V123.24C417 125.062 415.781 126.599 414.115 127.082V127.196H413.597C413.402 127.225 413.203 127.24 413 127.24H404.266C404.063 127.24 403.863 127.225 403.668 127.196H399.463C387.741 127.196 378.299 130.895 371.136 138.292C363.973 145.367 360.391 155.819 360.391 169.648V196.181C360.391 215.477 354.531 230.754 342.809 242.01C337.291 247.158 331.015 251.556 323.982 255.207C330.987 259.093 337.263 263.699 342.809 269.025C354.531 279.96 360.391 294.915 360.391 313.89V342.352C360.391 356.502 363.973 367.116 371.136 374.191C378.299 381.266 387.741 384.804 399.463 384.804H403.668C403.863 384.775 404.063 384.76 404.266 384.76H413C413.203 384.76 413.402 384.775 413.597 384.804H414.115V384.918C415.781 385.401 417 386.938 417 388.76V444C417 445.822 415.781 447.358 414.115 447.841V448H382.369C361.531 448 343.134 444.301 327.18 436.904C311.796 429.623 299.724 418.758 290.965 404.309L290.142 402.937C281.624 388.582 277.364 370.799 277.364 349.588V319.729C277.364 309.982 274.271 302.573 268.084 297.504C262.289 292.106 254.901 289.377 245.92 289.317C245.899 289.32 245.878 289.322 245.856 289.321L245.72 289.316C245.686 289.316 245.652 289.316 245.618 289.316V289.313L243.335 289.24H237V289.245L236.835 289.24H229.5C228.119 289.24 227 287.883 227 286.209V223.888C227 222.214 228.119 220.857 229.5 220.857H246.206C255.057 220.36 262.35 217.251 268.084 211.528C274.271 205.29 277.364 197.881 277.364 189.303V162.412C277.364 141.186 281.76 123.337 290.551 108.864C299.668 94.0703 312.04 82.9751 327.669 75.5781C343.623 67.8596 361.857 64 382.369 64H414.115V64.1582Z" fill="white"/>
<path d="M188 73.5C189.381 73.5 190.5 74.6193 190.5 76V437.5C190.5 438.881 189.381 440 188 440H112.5C111.119 440 110 438.881 110 437.5V76C110 74.6193 111.119 73.5 112.5 73.5H188Z" fill="white"/>
</svg>
