<svg width="1024" height="1024" viewBox="0 0 1024 1024" fill="none" xmlns="http://www.w3.org/2000/svg">
<rect width="1024" height="1024" fill="#FFDD33"/>
<path d="M749.738 896C708.062 896 671.269 888.603 639.361 873.809C608.103 859.015 583.684 836.824 566.101 807.236C548.519 778.291 539.728 742.271 539.728 699.176V618.131C539.728 602.05 533.542 589.829 521.169 581.467C509.447 572.462 494.47 567.96 476.236 567.96V455.075C494.47 454.432 509.447 449.286 521.169 439.638C533.542 429.347 539.728 417.126 539.728 402.975V324.824C539.728 282.372 548.519 246.673 566.101 217.729C584.335 188.141 609.08 165.95 640.338 151.156C672.246 135.719 708.713 128 749.738 128H813.23V254.392H783.926C760.483 254.392 741.598 261.789 727.272 276.583C712.946 290.734 705.783 311.638 705.783 339.296V392.362C705.783 430.955 694.061 461.508 670.618 484.02C647.175 505.889 616.895 521.005 579.776 529.367L580.753 489.809C617.22 499.457 647.175 515.538 670.618 538.05C694.061 559.92 705.783 589.829 705.783 627.779V684.703C705.783 713.005 712.946 734.231 727.272 748.382C741.598 762.533 760.483 769.608 783.926 769.608H813.23V896H749.738Z" fill="#1C1C1E"/>
<rect x="452" y="455.027" width="73.8616" height="112.807" rx="5" fill="#1C1C1E"/>
<rect width="10.5775" height="14.6036" rx="1" transform="matrix(0.999644 0.0266619 -0.02735 0.999626 467.539 553.114)" fill="#1C1C1E"/>
<rect x="785.531" y="769.519" width="33.4685" height="126.481" rx="8" fill="#1C1C1E"/>
<rect x="785.531" y="128" width="33.4685" height="126.481" rx="8" fill="#1C1C1E"/>
<path d="M540 649H539.728V639.459C539.727 619.963 533.542 605.147 521.169 595.009C509.577 584.212 494.801 578.754 476.841 578.635C476.799 578.64 476.756 578.644 476.713 578.643L476.439 578.633C476.372 578.633 476.304 578.633 476.236 578.633V578.627L471.671 578.479H457C454.239 578.479 452 575.766 452 572.418V447.775C452 444.428 454.239 441.714 457 441.714H477.411C495.114 440.721 509.7 434.502 521.169 423.057C533.541 410.579 539.728 395.763 539.728 378.606V375H540V649Z" fill="#1C1C1E"/>
<path d="M459 578.489L458.671 578.479H444C441.239 578.479 439 575.766 439 572.418V447.775C439 444.428 441.239 441.714 444 441.714H459V578.489Z" fill="#1C1C1E"/>
<rect x="232" y="147" width="134" height="733" rx="5" fill="#1C1C1E"/>
<rect x="205" y="147" width="99" height="733" rx="5" fill="#1C1C1E"/>
</svg>
